# xmcd CD database file
#
# Track frame offsets:
#	183
#	10250
#	20058
#	28055
#	38515
#	48878
#	61425
#	70715
#	79258
#	91258
#	100533
#	112180
#
# Disc length: 1625 seconds
#
# Revision: 0
# Processed by: cddbd v1.5.2PL0 Copyright (c) Steve Scherf et al.
# Submitted via: CDex 1.96
#
DISCID=9006570c
DTITLE=Bobby Darin - Bobby Darin
DYEAR=1900
DGENRE=Jazz
TTITLE0=Splish Splash
TTITLE1=Just In Case You Change Your Mind
TTITLE2=Pretty Betty
TTITLE3=Talk To Me Something
TTITLE4=Judy, Don't Be Moody
TTITLE5=(Since You're Gone) I Can't Go On
TTITLE6=I Found A Million Dollar Baby
TTITLE7=Wear My Ring
TTITLE8=So Mean
TTITLE9=Don't Call My Name
TTITLE10=Brand New House
TTITLE11=Actions Speak Louder Than Words
EXTD=
EXTT0=
EXTT1=
EXTT2=
EXTT3=
EXTT4=
EXTT5=
EXTT6=
EXTT7=
EXTT8=
EXTT9=
EXTT10=
EXTT11=
PLAYORDER=
